<?xml version="1.0" standalone="no"?>
<!DOCTYPE svg PUBLIC "-//W3C//DTD SVG 20010904//EN"
 "http://www.w3.org/TR/2001/REC-SVG-20010904/DTD/svg10.dtd">
<svg version="1.0" xmlns="http://www.w3.org/2000/svg"
 width="524.000000pt" height="477.000000pt" viewBox="0 0 524.000000 477.000000"
 preserveAspectRatio="xMidYMid meet">

<g transform="translate(0.000000,477.000000) scale(0.100000,-0.100000)"
fill="#000000" stroke="none">
<path d="M2512 4752 c-191 -69 -277 -291 -182 -471 18 -34 46 -73 62 -87 28
-23 29 -26 18 -60 -20 -59 -8 -131 33 -199 19 -33 38 -75 42 -93 l7 -32 -54
21 c-69 28 -179 31 -225 6 -40 -21 -74 -79 -125 -210 -22 -56 -44 -108 -50
-114 -8 -10 10 -13 89 -13 106 0 186 -16 268 -54 97 -45 93 -35 101 -252 l7
-191 -124 -6 c-193 -8 -318 -49 -409 -133 -65 -61 -94 -112 -111 -198 -32
-156 63 -354 223 -466 39 -28 75 -50 81 -50 5 0 32 21 60 46 54 48 125 89 192
110 33 10 37 13 20 19 -129 45 -199 95 -236 168 -32 61 -24 155 16 198 17 17
47 40 68 50 45 23 203 47 216 33 5 -5 12 -114 16 -241 l8 -233 -30 0 c-80 0
-210 -68 -286 -149 -98 -104 -116 -204 -60 -323 32 -67 107 -149 154 -168 27
-12 32 -10 74 29 25 23 61 49 80 58 19 9 35 19 35 22 0 3 -15 13 -33 22 -49
24 -89 87 -89 142 0 25 6 55 12 67 13 25 83 59 121 60 26 0 26 -1 32 -97 4
-54 7 -120 6 -148 l0 -50 -61 -29 c-72 -34 -142 -100 -168 -159 -42 -92 -13
-229 61 -292 l30 -25 32 24 c18 13 48 31 67 41 47 24 47 23 21 42 -13 8 -30
31 -38 50 -12 31 -12 38 2 59 8 13 19 24 24 24 5 0 16 3 24 6 13 5 16 -9 19
-85 l3 -90 -35 -16 c-104 -50 -155 -128 -148 -226 5 -64 26 -103 70 -128 23
-13 28 -12 64 14 21 16 41 31 43 32 3 2 -5 13 -17 26 -29 31 -28 68 3 97 l25
23 0 -81 c0 -48 -4 -82 -10 -82 -5 0 -29 -17 -52 -37 -94 -85 -104 -203 -25
-297 23 -28 26 -29 56 -16 23 9 31 18 27 29 -30 89 -30 98 -8 132 l22 34 0
-96 0 -97 -30 -12 c-84 -35 -78 -165 15 -297 l27 -38 -6 82 c-4 46 -11 95 -16
109 -8 19 -7 31 2 42 11 13 15 -11 25 -134 19 -248 26 -304 34 -304 5 0 9 19
9 42 0 87 21 167 56 216 78 107 94 187 48 241 -2 2 -15 -6 -31 -18 -22 -18
-27 -29 -24 -61 1 -21 -2 -41 -8 -45 -7 -4 -11 9 -11 39 0 41 4 49 48 90 68
63 106 137 105 202 0 27 -5 59 -11 71 l-12 21 -52 -26 c-29 -15 -54 -28 -56
-29 -2 0 4 -15 12 -32 21 -40 20 -70 -4 -106 l-20 -30 0 90 0 91 34 12 c46 17
123 86 146 132 40 79 36 155 -13 211 l-22 27 -63 -29 -63 -30 20 -26 c27 -34
26 -56 -4 -90 l-24 -28 -1 80 0 81 65 28 c127 55 205 154 205 259 0 47 -15
117 -25 117 -2 0 -41 -18 -86 -40 -46 -22 -89 -40 -96 -40 -9 0 -7 -9 8 -29
21 -29 21 -30 3 -67 -11 -21 -29 -44 -41 -52 l-23 -14 1 63 c2 98 7 110 64
129 147 50 273 157 315 265 26 69 32 201 12 272 l-13 42 -45 -19 c-42 -19
-115 -41 -176 -54 l-27 -6 25 -25 c34 -35 36 -108 2 -162 -25 -42 -69 -73
-113 -80 l-35 -6 0 49 c0 27 3 93 7 147 l6 97 34 0 c55 0 182 29 264 61 174
67 309 205 354 363 23 79 17 212 -12 278 l-21 47 -49 -15 c-65 -20 -217 -44
-276 -44 l-49 0 48 -43 c46 -42 48 -46 52 -109 3 -51 0 -73 -16 -105 -27 -52
-92 -110 -156 -138 -58 -25 -154 -50 -163 -42 -3 3 -2 107 2 231 l7 226 120 0
c235 0 454 38 547 95 110 67 170 155 171 249 0 126 -105 219 -294 261 -110 25
-268 17 -350 -16 -79 -32 -82 -46 -9 -54 89 -10 96 -20 16 -23 -45 -2 -75 -8
-83 -17 -9 -11 0 -16 47 -25 45 -10 78 -10 148 0 50 6 126 14 170 17 76 5 82
4 112 -21 58 -49 52 -126 -12 -166 -69 -42 -177 -61 -384 -67 l-194 -6 7 194
c8 220 4 210 101 255 82 38 162 54 268 54 79 0 97 3 89 13 -6 6 -28 58 -50
114 -51 131 -85 189 -125 210 -46 25 -156 22 -225 -6 l-54 -21 7 32 c4 18 23
60 42 93 41 68 53 140 33 199 -11 34 -10 37 18 60 16 14 44 53 63 88 32 58 34
70 34 153 0 78 -4 97 -28 146 -32 67 -100 132 -165 162 -66 29 -172 33 -240 9z"/>
<path d="M1795 4539 c-139 -18 -329 -83 -600 -208 -221 -101 -401 -142 -630
-142 -197 -1 -368 36 -514 111 -24 12 -45 20 -47 17 -8 -7 46 -177 72 -230
138 -274 404 -345 799 -212 117 40 377 169 560 280 319 193 421 226 535 174
87 -39 135 -108 186 -264 18 -58 41 -117 50 -131 21 -31 64 -54 100 -54 l27 0
-27 21 c-53 41 -60 69 -66 264 -5 159 -8 185 -28 227 -54 110 -227 171 -417
147z"/>
<path d="M3280 4540 c-120 -17 -215 -73 -252 -149 -20 -41 -23 -68 -28 -226
-6 -195 -13 -223 -66 -264 l-27 -21 27 0 c36 0 79 23 99 53 9 14 30 69 47 123
51 158 101 231 185 270 119 56 216 25 540 -171 183 -111 443 -240 560 -280
395 -133 661 -62 799 212 25 51 80 223 73 230 -2 2 -39 -13 -82 -33 -160 -74
-380 -109 -582 -93 -196 15 -357 59 -548 149 -139 65 -315 134 -419 164 -66
20 -247 50 -266 45 -3 -1 -30 -5 -60 -9z"/>
<path d="M1785 4296 c-60 -19 -154 -69 -320 -169 -194 -118 -423 -234 -553
-280 -164 -59 -285 -80 -425 -74 -116 4 -117 4 -111 -17 34 -111 174 -219 339
-261 90 -24 216 -21 300 5 143 45 241 117 499 367 122 119 220 205 278 243 82
55 164 90 212 90 47 0 48 16 6 54 -23 20 -52 41 -66 46 -34 13 -111 11 -159
-4z"/>
<path d="M3285 4295 c-16 -9 -45 -30 -62 -48 -34 -32 -30 -47 13 -47 48 0 130
-35 212 -90 58 -38 156 -124 278 -243 258 -250 356 -322 499 -367 84 -26 210
-29 300 -5 165 42 305 150 339 261 6 21 5 21 -111 17 -140 -6 -261 15 -425 74
-131 47 -359 162 -556 282 -220 133 -307 173 -390 178 -49 3 -75 0 -97 -12z"/>
<path d="M1972 4154 c-117 -31 -199 -91 -422 -308 -320 -313 -448 -391 -660
-405 l-105 -6 59 -62 c76 -81 139 -113 222 -113 124 0 228 75 509 367 86 90
192 192 236 229 92 76 207 139 273 149 52 8 52 9 14 113 -22 59 -31 62 -126
36z"/>
<path d="M3143 4119 c-39 -105 -39 -106 13 -114 66 -10 181 -73 273 -150 44
-36 150 -139 236 -228 279 -291 385 -367 509 -367 83 0 146 32 222 113 l59 62
-105 6 c-211 13 -341 93 -655 399 -245 239 -346 307 -483 326 l-50 6 -19 -53z"/>
<path d="M2026 3945 c-118 -48 -190 -109 -521 -442 -82 -82 -166 -162 -185
-176 -34 -26 -34 -27 -15 -41 35 -27 124 -56 172 -56 101 0 190 78 303 264
112 184 141 227 196 282 55 57 140 104 187 104 16 0 27 3 25 8 -36 75 -42 82
-72 82 -17 0 -57 -11 -90 -25z"/>
<path d="M3075 3934 c-11 -22 -21 -42 -23 -46 -2 -5 9 -8 25 -8 87 0 207 -102
302 -256 168 -273 228 -347 306 -380 65 -27 186 -7 250 42 19 14 19 15 -15 41
-19 15 -141 132 -270 260 -129 128 -260 252 -290 275 -70 52 -170 99 -223 105
-41 5 -43 4 -62 -33z"/>
<path d="M2084 3810 c-67 -38 -143 -123 -210 -236 -73 -124 -72 -120 -29 -128
51 -10 100 9 135 52 17 20 51 90 76 154 25 65 56 133 69 153 14 19 21 35 17
35 -4 0 -30 -13 -58 -30z"/>
<path d="M3115 3805 c13 -20 44 -88 69 -153 51 -130 89 -185 140 -202 45 -15
109 -4 101 18 -18 46 -121 205 -165 255 -45 49 -138 117 -162 117 -4 0 3 -16
17 -35z"/>
<path d="M1945 3372 c-129 -34 -219 -92 -254 -165 -56 -116 -1 -247 143 -338
l60 -38 47 43 c51 46 133 89 205 108 54 15 57 28 6 28 -53 0 -187 35 -227 60
-64 40 -70 117 -12 166 30 25 36 26 112 21 44 -3 121 -11 170 -17 70 -10 103
-10 148 0 47 9 56 14 47 25 -8 9 -38 15 -83 17 -80 3 -73 13 16 23 73 8 70 22
-9 54 -81 33 -265 40 -369 13z"/>
</g>
</svg>
